<?xml version="1.0" encoding="UTF-8"?>
<svg id="Layer_2" data-name="Layer 2" xmlns="http://www.w3.org/2000/svg" viewBox="0 0 746.43 746.43">
  <defs>
    <style>
      .cls-1 {
        fill: #2f1e14;
      }

      .cls-1, .cls-2, .cls-3 {
        stroke-width: 0px;
      }

      .cls-2 {
        fill: #a4734a;
      }

      .cls-3 {
        fill: #16120f;
      }
    </style>
  </defs>
  <g id="Layer_1-2" data-name="Layer 1">
    <circle class="cls-3" cx="373.22" cy="373.22" r="373.22"/>
    <circle class="cls-1" cx="388.92" cy="357.51" r="357.51"/>
    <path class="cls-2" d="M583.83,362.93c0,13.17-10.98,23.49-23.42,23.49h-23.42l.51,117.24c0,1.98-.15,3.95-.37,5.93v11.86c0,16.17-13.1,29.27-29.27,29.27h-11.71c-.81,0-1.61,0-2.42-.07-1.02.07-2.05.07-3.07.07l-23.79-.07h-17.56c-16.17,0-29.27-13.1-29.27-29.27v-64.4c0-12.95-10.47-23.42-23.42-23.42h-46.84c-12.95,0-23.42,10.47-23.42,23.42v64.4c0,16.17-13.1,29.27-29.27,29.27h-40.91c-1.1,0-2.2-.07-3.29-.15-.88.07-1.76.15-2.63.15h-11.71c-16.17,0-29.27-13.1-29.27-29.27v-81.97c0-.66,0-1.39.07-2.05v-51.01h-23.42c-13.17,0-23.42-10.25-23.42-23.49,0-6.59,2.2-12.44,7.32-17.56l187.57-163.5c5.12-5.12,10.98-5.85,16.1-5.85s10.98,1.46,15.37,5.12l186.92,164.3c5.85,5.12,8.78,10.98,8.05,17.56Z"/>
  </g>
</svg>