<?xml version="1.0" encoding="utf-8"?>
<!-- Generator: Adobe Illustrator 28.1.0, SVG Export Plug-In . SVG Version: 6.00 Build 0)  -->
<svg version="1.1" id="Layer_1" xmlns="http://www.w3.org/2000/svg" xmlns:xlink="http://www.w3.org/1999/xlink" x="0px" y="0px"
	 viewBox="0 0 982 1027" style="enable-background:new 0 0 982 1027;" xml:space="preserve">
<style type="text/css">
	.st0{fill:#16120F;}
	.st1{fill:#2F1E14;}
	.st2{fill:#A4734A;}
</style>
<image style="overflow:visible;" width="461" height="487" xlink:href="B9F0189D.jpg"  transform="matrix(1 0 0 1 -621.8889 513.5)">
</image>
<circle class="st0" cx="495.2" cy="504.9" r="373.2"/>
<circle class="st1" cx="510.9" cy="489.2" r="357.5"/>
<path class="st2" d="M705.8,494.7c0,13.2-11,23.5-23.4,23.5h-23.4l0.5,117.2c0,2-0.1,4-0.4,5.9v11.9c0,16.2-13.1,29.3-29.3,29.3
	h-11.7c-0.8,0-1.6,0-2.4-0.1c-1,0.1-2,0.1-3.1,0.1l-23.8-0.1h-17.6c-16.2,0-29.3-13.1-29.3-29.3v-17.6v-46.8
	c0-13-10.5-23.4-23.4-23.4h-46.8c-13,0-23.4,10.5-23.4,23.4v46.8v17.6c0,16.2-13.1,29.3-29.3,29.3h-17.6h-23.3
	c-1.1,0-2.2-0.1-3.3-0.1c-0.9,0.1-1.8,0.1-2.6,0.1h-11.7c-16.2,0-29.3-13.1-29.3-29.3v-82c0-0.7,0-1.4,0.1-2v-51h-23.4
	c-13.2,0-23.4-10.2-23.4-23.5c0-6.6,2.2-12.4,7.3-17.6l187.6-163.5c5.1-5.1,11-5.9,16.1-5.9s11,1.5,15.4,5.1l186.9,164.3
	C703.6,482.2,706.5,488.1,705.8,494.7z"/>
<image style="overflow:visible;" width="488" height="463" xlink:href="B9F0189C.jpg"  transform="matrix(1 0 0 1 -621.8889 37)">
</image>
</svg>
