<?xml version="1.0" encoding="UTF-8"?>
<svg id="Layer_1" data-name="Layer 1" xmlns="http://www.w3.org/2000/svg" viewBox="0 0 100 100">
  <defs>
    <style>
      .cls-1 {
        fill: #2f1e14;
      }

      .cls-1, .cls-2 {
        stroke-width: 0px;
      }

      .cls-3 {
        opacity: .93;
      }

      .cls-2 {
        fill: #a4734a;
      }
    </style>
  </defs>
  <rect class="cls-2" x="0" y="0" width="100" height="100" rx="50" ry="50"/>
  <g class="cls-3">
    <path class="cls-1" d="M38.44,30.96c-.38-.05-.77-.12-1.15-.22-.38-.1-.77-.19-1.15-.29-.91-.29-1.61-.74-2.09-1.37-.24-.24-.42-.62-.54-1.15-.12-.53-.18-.98-.18-1.37v-.79c0-.29.05-.55.14-.79.1-.53.43-1.01,1.01-1.44.38-.29.84-.5,1.37-.65.33-.1.67-.17,1.01-.22.34-.05.7-.1,1.08-.14.33-.05.67-.07,1.01-.07h9c.38,0,.87.02,1.38,0,1.87-.09,3.63-.06,5.46-.06s3.6.02,5.33.07h.43c.53,0,1.04.01,1.55.04.5.02,1.02.04,1.55.04,1.1.05,2.13.26,3.1.65.77.19,1.39.6,1.87,1.22.48.62.72,1.25.72,1.87.05.29.06.65.04,1.08-.03.43-.06.77-.11,1.01-.14.48-.48.96-1.01,1.44-.14.14-.31.28-.5.4-.19.12-.43.23-.72.32-.29.1-.57.16-.86.18-.29.02-.6.06-.94.11-.34.05-.65.08-.94.11-.29.02-.6.04-.94.04h-4.1v1.22c-.05,4.32.04,8.64.25,12.96.22,4.32.18,8.64-.11,12.96-.14,1.44-.36,2.92-.65,4.43-.29,1.51-.76,2.93-1.4,4.25-.65,1.32-1.5,2.53-2.55,3.64-1.06,1.1-2.4,1.97-4.03,2.59-1.54.58-3.22.98-5.04,1.22-1.82.24-3.66.26-5.51.07-1.85-.19-3.61-.6-5.29-1.22-1.68-.62-3.1-1.49-4.25-2.59-.62-.58-1.2-1.28-1.73-2.12-.53-.84-.89-1.73-1.08-2.66-.19-.94-.14-1.85.14-2.74.29-.89.96-1.62,2.02-2.2.91-.53,1.74-.65,2.48-.36.74.29,1.46.74,2.16,1.37.69.62,1.42,1.27,2.16,1.94.74.67,1.57,1.11,2.48,1.3,1.97.48,3.58.49,4.82.04,1.25-.46,2.23-1.19,2.95-2.2.72-1.01,1.23-2.23,1.55-3.67.31-1.44.5-2.9.58-4.39.07-1.49.08-2.93.04-4.32-.05-1.39-.05-2.57,0-3.53.05-2.54.05-5.04,0-7.49-.05-2.45-.07-4.94-.07-7.49v-.29c0-.11,0-.24,0-.43l-.15-.02c-.29-.05-.89-.07-1.8-.09-.91-.02-1.9-.04-2.95-.04s-2.05-.01-2.99-.04c-.94-.02-1.55-.04-1.84-.04l-1.01-.07Z"/>
  </g>
</svg>