<?xml version="1.0" encoding="UTF-8"?>
<svg id="Layer_2" data-name="Layer 2" xmlns="http://www.w3.org/2000/svg" viewBox="0 0 749.03 749.08">
  <defs>
    <style>
      .cls-1 {
        fill: #2f1e14;
      }

      .cls-1, .cls-2, .cls-3 {
        stroke-width: 0px;
      }

      .cls-2 {
        fill: #a5744b;
      }

      .cls-3 {
        fill: #16120f;
      }
    </style>
  </defs>
  <g id="Layer_1-2" data-name="Layer 1">
    <circle class="cls-3" cx="373.22" cy="375.86" r="373.22"/>
    <circle class="cls-1" cx="391.5" cy="357.53" r="357.53"/>
    <path class="cls-2" d="M582.81,297.81c2.8,7.6.44,16.07-5.59,21.49l-37.82,34.41c.96,7.25,1.48,14.67,1.48,22.19s-.52,14.94-1.48,22.19l37.82,34.41c6.03,5.42,8.39,13.89,5.59,21.49-3.84,10.39-8.47,20.35-13.8,29.96l-4.11,7.08c-5.76,9.61-12.23,18.69-19.3,27.25-5.15,6.29-13.71,8.39-21.4,5.94l-48.65-15.46c-11.7,9-24.63,16.51-38.43,22.19l-10.92,49.88c-1.75,7.95-7.86,14.24-15.9,15.55-12.05,2.01-24.46,3.06-37.12,3.06s-25.07-1.05-37.12-3.06c-8.04-1.31-14.15-7.6-15.9-15.55l-10.92-49.88c-13.8-5.68-26.73-13.19-38.43-22.19l-48.57,15.55c-7.69,2.45-16.25.26-21.4-5.94-7.08-8.56-13.54-17.64-19.3-27.25l-4.11-7.08c-5.33-9.61-9.96-19.57-13.8-29.96-2.8-7.6-.44-16.07,5.59-21.49l37.82-34.41c-.96-7.34-1.48-14.76-1.48-22.27s.52-14.94,1.48-22.19l-37.82-34.41c-6.03-5.42-8.39-13.89-5.59-21.49,3.84-10.39,8.47-20.35,13.8-29.96l4.11-7.08c5.76-9.61,12.23-18.69,19.3-27.25,5.15-6.29,13.71-8.39,21.4-5.94l48.65,15.46c11.7-9,24.63-16.51,38.43-22.19l10.92-49.88c1.75-7.95,7.86-14.24,15.9-15.55,12.05-2.1,24.46-3.14,37.12-3.14s25.07,1.05,37.12,3.06c8.04,1.31,14.15,7.6,15.9,15.55l10.92,49.88c13.8,5.68,26.73,13.19,38.43,22.19l48.65-15.46c7.69-2.45,16.25-.26,21.4,5.94,7.08,8.56,13.54,17.64,19.3,27.25l4.11,7.08c5.33,9.61,9.96,19.57,13.8,29.96l-.09.09ZM373.26,445.78c38.59,0,69.88-31.29,69.88-69.88s-31.29-69.88-69.88-69.88-69.88,31.29-69.88,69.88,31.29,69.88,69.88,69.88Z"/>
  </g>
</svg>