<svg width="24" height="24" viewBox="0 0 24 24" style="fill: #E2AE1D" xmlns="http://www.w3.org/2000/svg">
<path style="fill: #E2AE1D" d="M12.0004 0C12.4188 0 12.8007 0.236468 12.9826 0.613908L16.1022 7.03948L23.0689 8.06721C23.4782 8.12632 23.8193 8.41281 23.9466 8.80844C24.0739 9.20407 23.9693 9.63153 23.6783 9.92257L18.6261 14.9339L19.8175 22.0097C19.8857 22.419 19.7174 22.8328 19.3764 23.0784C19.0353 23.324 18.5897 23.3512 18.2259 23.1557L11.9958 19.827L5.77491 23.1512C5.40657 23.3467 4.96092 23.3194 4.6244 23.0738C4.28789 22.8283 4.11509 22.4145 4.1833 22.0052L5.37474 14.9293L0.322499 9.92257C0.0269136 9.63153 -0.0731307 9.19953 0.0541984 8.80844C0.181527 8.41736 0.522587 8.13087 0.93186 8.06721L7.89858 7.03948L11.0181 0.613908C11.2046 0.236468 11.582 0 12.0004 0Z" fill="black"/>
</svg>
